<svg id="Layer_1" data-name="Layer 1" xmlns="http://www.w3.org/2000/svg" viewBox="0 0 560 197.11"><defs><style>.cls-1{fill:none;}.cls-1,.cls-3,.cls-4{stroke:#000;stroke-miterlimit:10;stroke-width:2px;}.cls-2{fill:#fff;}.cls-4{fill:#f15a24;}</style></defs><title>illustrator-1-snowman</title><line x1="246.87" y1="63.49" x2="202.67" y2="21.22"/><line class="cls-1" x1="246.87" y1="63.49" x2="225.24" y2="42.81"/><path d="M209.41,61.17l.46.48a2.36,2.36,0,0,0-.1,3.78,1.6,1.6,0,0,0,.31,2.81,7,7,0,0,1,2.7,2.54c1.44,2,2.93,4.44,6.14,5.21a.45.45,0,0,1,.33.54c-.12.32-.83.92-.28,1.47l2.1,2c.75.71,2.4.19,5.71-3.3,3.46-3.64,4.78-5.1,3.29-6.54s-1.88-1.8-1.88-1.8a.84.84,0,0,0-1.12-.07.35.35,0,0,1-.45-.21A20.05,20.05,0,0,0,224,63.54c-1.34-1.58-1.49-2.59-2.64-3.4-1.36-1-5.09-4.75-6.22-5.87s-3.27-2.45-5.61-4.8-4.78.4-2.61,2.25c1.72,1.46,1.58,1.71,2.21,2.17a19.76,19.76,0,0,1,2.79,2.77,17,17,0,0,1,1.74,1.71,9.3,9.3,0,0,0-2-.68C209.87,57.15,208.39,60.07,209.41,61.17Z" transform="translate(0 -31.89)"/><path class="cls-2" d="M224.15,73.47a37.91,37.91,0,0,1-4.32,3.87c-.28.14-.25.42.1.7s1.36,1.28,1.36,1.28c.5.47,1.58.54,5.27-3.31,3.79-4,4.11-4.68,2.93-5.81L228,68.85a.38.38,0,0,0-.36,0C227.31,68.93,227.54,69.72,224.15,73.47Z" transform="translate(0 -31.89)"/><path class="cls-2" d="M220.37,70.6a.3.3,0,0,1-.16.28c-.38.13-.49-.35-.69-.58s-1-1.34-1.64-1.46a3.9,3.9,0,0,0-3,.42,2.08,2.08,0,0,1-1.72.1c-.44-.21-.72.19-.46.5a18.62,18.62,0,0,0,3.09,3.7c2,1.75,4.22,3.12,6.81.65a26.29,26.29,0,0,0,3.71-4.34c.49-.93-.11-1.49-.37-2.26-1.28-3-2.78-4.32-3.72-5.73-.37-.56-.56-1.08-1.56-1.24-2.14-.32-4-1.49-4.61-1.58a1.16,1.16,0,0,0-.71,0c-.21.09-.5-.15-.9-.18a2,2,0,0,1-.6-.13c-.05.49.44.36.16,1.25-.06.19-.37.37-.51.44-.38.11-.94-.36-1.19-.52l-.64-.43c-.59-.38-.25-1-.44-.86-1,.82.44,1.8.91,2.12a9.4,9.4,0,0,0,1.45.74c.3,0,1.25.89,1.86.23.11-.09.31-.34.5,0s1.19,1.28,1.63,1.13a.8.8,0,0,1,.57,0c.21.07.22.24,0,.39s-.5.5-.26.86.33.46.63.52a3.36,3.36,0,0,1,1.07.38c.09.18.1.4-.38.23a1,1,0,0,0-1.27,1c0,1.53-.33,1.36,2.23,4A.5.5,0,0,1,220.37,70.6Z" transform="translate(0 -31.89)"/><path class="cls-2" d="M216,66.5c.76-.11,1.17,0,1.26-.75,0-.12-.08-.24-.48-.47-.21-.13-1.47,0-1.4,1C215.42,66.43,215.51,66.61,216,66.5Z" transform="translate(0 -31.89)"/><path class="cls-2" d="M215.22,68.42c.14.26,1.42-.39,1.46-.47s.15-.23-.24-.68a1.06,1.06,0,0,0-1.27.31C214.93,67.89,215.19,68.36,215.22,68.42Z" transform="translate(0 -31.89)"/><path class="cls-2" d="M215.83,64.28c.39,0,1.17,0,1.25-.33s0-.67-.54-.93a.91.91,0,0,0-1.35.92C215.3,64.18,215.31,64.31,215.83,64.28Z" transform="translate(0 -31.89)"/><path class="cls-2" d="M210.17,65.78c-1.51,1,0,2.21.85,2.41,1.41.33,2.33,1,3,.88.37,0,1.12-.31.89-.58a1.49,1.49,0,0,1-.24-.85c0-.09.4-.37.32-.44s-.32.42-1.6,0a15.64,15.64,0,0,1-2-.84,10.09,10.09,0,0,1-1-.59C210.25,65.72,210.2,65.75,210.17,65.78Z" transform="translate(0 -31.89)"/><path class="cls-2" d="M210.39,62.16A13.93,13.93,0,0,1,212,63.68a2.7,2.7,0,0,0,2.59,1.2c.46,0,.71-.12,1-.09s.68-.08.2.23c-.24.15-.52.12-.7.57a1.49,1.49,0,0,0,0,1s.07.11,0,.09a2.39,2.39,0,0,1-2.13-.18c-1.63-.92-2.52-1.15-2.85-1.36a1.52,1.52,0,0,1-.18-.18,1.41,1.41,0,0,1-.49-.84,2.06,2.06,0,0,1,.69-2C210.24,62.13,210.33,62.11,210.39,62.16Z" transform="translate(0 -31.89)"/><path class="cls-2" d="M210.73,58.26a2.08,2.08,0,0,0-1,2.48c.31.65.7.77,1.16,1.25.87.75,1.48,1.45,1.83,1.76a2.08,2.08,0,0,0,1.53.7c.27,0,.79,0,.67-.23a1,1,0,0,1-.08-.92c.18-.64.76-.64.38-.79a2.57,2.57,0,0,0-.76-.18c-1.57-.24-5.24-2.37-3.73-3.81C210.85,58.4,210.84,58.23,210.73,58.26Z" transform="translate(0 -31.89)"/><path class="cls-2" d="M213.23,58.67a1.18,1.18,0,0,0-.56-.24c-.26-.1-1-.62-1.11.06s1.17,1.22,1.59,1.42a.39.39,0,0,0,.45-.09C213.71,59.7,213.91,59.33,213.23,58.67Z" transform="translate(0 -31.89)"/><path class="cls-2" d="M210.71,51.29c.72.72,2.79,2,3.52,3a42.26,42.26,0,0,1,3.67,3.43,26.36,26.36,0,0,1,2.57,2.45,13.07,13.07,0,0,1-3.5-1.24,2.65,2.65,0,0,0-2-.33,9.78,9.78,0,0,1-2.47-2.2c0-.09.09-.18-.12-.31s-.15,0-.45-.26c-1.52-1.38-2.29-2.16-2.29-2.16-.31-.33-.08-.35-.17-.49s-.1,0-.49-.24a20.28,20.28,0,0,1-2-1.82c-1.19-1.09.22-3.11,2.27-1.3C210.6,51,210.47,51.14,210.71,51.29Z" transform="translate(0 -31.89)"/><line x1="313.13" y1="63.49" x2="377.46" y2="52.33"/><line class="cls-1" x1="313.13" y1="63.49" x2="346.68" y2="57.67"/><path d="M367.36,87.15l-.65.15a2.34,2.34,0,0,1-2,3.18,1.6,1.6,0,0,1-1.82,2.17,7,7,0,0,0-3.66.6c-2.3.85-4.9,2.06-8,.9a.45.45,0,0,0-.57.27c-.09.33.17,1.23-.59,1.38l-2.87.49c-1,.18-2.09-1.17-2.9-5.92-.84-5-1.12-6.89.92-7.27s2.56-.44,2.56-.44a.85.85,0,0,1,1,.58.36.36,0,0,0,.49.07A20,20,0,0,1,354,81c2-.56,2.68-1.32,4.09-1.34,1.66,0,6.87-1.12,8.44-1.41s4.08-.22,7.33-.86,3.75,3,.91,3.32c-2.24.26-2.26.54-3.05.58a20.45,20.45,0,0,0-3.85.73,18.66,18.66,0,0,0-2.4.45,10.16,10.16,0,0,1,2.06.57C369.22,83.56,368.83,86.81,367.36,87.15Z" transform="translate(0 -31.89)"/><path class="cls-2" d="M348.28,89.15a36.25,36.25,0,0,0,1.42,5.62c.16.27,0,.49-.47.53s-1.85.3-1.85.3c-.67.12-1.61-.43-2.52-5.69-.91-5.44-.81-6.17.79-6.45l2-.29a.37.37,0,0,1,.31.17C348.17,83.62,347.55,84.15,348.28,89.15Z" transform="translate(0 -31.89)"/><path class="cls-2" d="M353,88.88a.31.31,0,0,0,0,.32c.25.31.6,0,.91-.1s1.6-.54,2.16-.3a3.9,3.9,0,0,1,2.27,2,2.08,2.08,0,0,0,1.37,1c.49.07.5.56.1.67a18.48,18.48,0,0,1-4.62,1.35c-2.67.32-5.24.23-6-3.26a27.24,27.24,0,0,1-.66-5.67c.11-1,.92-1.18,1.57-1.66,2.73-1.78,4.71-2,6.28-2.69a2,2,0,0,1,2-.16c2,.93,4.13,1,4.71,1.26.39.16.51.26.59.38s.5.16.85.36a2.1,2.1,0,0,0,.57.22c-.23.43-.57,0-.83,1a1,1,0,0,0,.18.65c.25.3,1,.23,1.27.23h.77c.7,0,.79-.71.85-.47.34,1.22-1.37,1.25-1.93,1.26a11.34,11.34,0,0,1-1.62-.19c-.27-.14-1.53,0-1.67-.85-.05-.14-.07-.47-.44-.25s-1.7.39-2,0a.77.77,0,0,0-.46-.33c-.22-.06-.32.08-.25.3s.13.69-.26.86a.88.88,0,0,1-.82.08,3,3,0,0,0-1.1-.28c-.18.1-.3.27.18.4a1,1,0,0,1,.48,1.57c-.82,1.29-.48,1.32-4.07,2.06A.47.47,0,0,0,353,88.88Z" transform="translate(0 -31.89)"/><path class="cls-2" d="M358.93,87.91c-.57-.52-1-.66-.63-1.32,0-.13.2-.15.67-.13.24,0,1.2.83.62,1.59C359.44,88.17,359.27,88.27,358.93,87.91Z" transform="translate(0 -31.89)"/><path class="cls-2" d="M358.5,89.93c-.27.14-1-1.11-1-1.2s0-.28.59-.42c.26,0,.84.38.88,1C359,89.65,358.56,89.91,358.5,89.93Z" transform="translate(0 -31.89)"/><path class="cls-2" d="M360.3,86.15c-.3-.23-1-.66-.85-1s.33-.57,1-.46a.9.9,0,0,1,.61,1.5C360.79,86.37,360.71,86.47,360.3,86.15Z" transform="translate(0 -31.89)"/><path class="cls-2" d="M364.17,90.55c.71,1.66-1.21,1.86-2.06,1.54-1.35-.52-2.46-.51-3-.93-.29-.24-.76-.89-.41-1a1.59,1.59,0,0,0,.67-.57c0-.08-.12-.54,0-.54s0,.52,1.32.89a15.73,15.73,0,0,0,2.14.42,8,8,0,0,0,1.18.09A.14.14,0,0,1,364.17,90.55Z" transform="translate(0 -31.89)"/><path class="cls-2" d="M366,87.43a14.13,14.13,0,0,0-2.14.39,2.74,2.74,0,0,1-2.82-.44c-.38-.26-.52-.5-.81-.66s-.52-.45-.29.08c.12.26.37.39.27.87a1.52,1.52,0,0,1-.57.84c-.05,0-.11,0-.06.07a2.32,2.32,0,0,0,1.87,1c1.86.15,2.73.46,3.12.46l.25,0a1.37,1.37,0,0,0,.87-.42,2.07,2.07,0,0,0,.53-2C366.14,87.49,366.07,87.41,366,87.43Z" transform="translate(0 -31.89)"/><path class="cls-2" d="M367.89,84a2.07,2.07,0,0,1-.58,2.6,4.24,4.24,0,0,1-1.67.38c-1.14.14-2,.38-2.49.46a2.13,2.13,0,0,1-1.67-.28c-.21-.17-.68-.41-.42-.57a1,1,0,0,0,.58-.71c.2-.64-.27-1,.12-.87a2.35,2.35,0,0,1,.73.27c1.44.68,5.67,1,5.23-1.08C367.71,84.05,367.82,83.92,367.89,84Z" transform="translate(0 -31.89)"/><path class="cls-2" d="M365.58,83a1.1,1.1,0,0,1,.6.11c.28.06,1.22.07.89.67s-1.65.36-2.11.29a.37.37,0,0,1-.32-.32C364.61,83.54,364.65,83.11,365.58,83Z" transform="translate(0 -31.89)"/><path class="cls-2" d="M371.79,78.23c-1,.19-3.41.06-4.59.52a40.42,40.42,0,0,0-4.95.8,25.82,25.82,0,0,0-3.51.6,12.92,12.92,0,0,0,3.6.92,2.69,2.69,0,0,1,1.86.85,9.65,9.65,0,0,0,3.27-.45c0-.09,0-.2.28-.19s.11.08.51,0c2-.29,3.1-.52,3.1-.52.45-.1.27-.24.42-.31s.05.1.54.07a17.3,17.3,0,0,0,2.71-.37c1.59-.24,1.54-2.71-1.16-2.35C372,78.08,372.08,78.24,371.79,78.23Z" transform="translate(0 -31.89)"/><path class="cls-3" d="M270.29,56.79a10.65,10.65,0,0,0,19.15-.69" transform="translate(0 -31.89)"/><circle class="cls-3" cx="288.89" cy="16.11" r="2.89"/><circle class="cls-3" cx="272.22" cy="16.11" r="2.89"/><line class="cls-4" y1="196.11" x2="560" y2="195.11"/><line class="cls-4" x1="400" y1="118.11" x2="361.8" y2="87.9"/><path class="cls-4" d="M406.89,136.56A25.65,25.65,0,0,1,384.36,162a23.33,23.33,0,0,1-3.14.2,25.67,25.67,0,0,1-1.09-51.31l1.09,0a25.67,25.67,0,0,1,25.67,25.67Z" transform="translate(0 -31.89)"/><path class="cls-4" d="M381.22,118.33A25.67,25.67,0,0,1,356.65,144a25.69,25.69,0,0,1,23.48-33.07A25.61,25.61,0,0,1,381.22,118.33Z" transform="translate(0 -31.89)"/><path class="cls-4" d="M406.89,136.56A25.65,25.65,0,0,1,384.36,162a25.65,25.65,0,0,1,21.84-31.37A25.63,25.63,0,0,1,406.89,136.56Z" transform="translate(0 -31.89)"/><path class="cls-1" d="M334.44,173.56A54.44,54.44,0,1,1,255.3,125,33.78,33.78,0,0,1,268,70.4a20.67,20.67,0,1,1,23.92,0A33.78,33.78,0,0,1,304.7,125,54.44,54.44,0,0,1,334.44,173.56Z" transform="translate(0 -31.89)"/><path class="cls-4" d="M401.12,151.22l-23.67-16.44c7.73,5.78,15.4,11.7,23.58,16.55Z" transform="translate(0 -31.89)"/><path class="cls-4" d="M377.45,134.78c-5.91-4.07-11.85-8.06-18-11.54Z" transform="translate(0 -31.89)"/></svg>